HIERARCHY
ROOT Hips
{
	OFFSET -3.958830 18.904000 13.208200
	CHANNELS 6 Xposition Yposition Zposition Zrotation Yrotation Xrotation 
	JOINT LHipJoint
	{
		OFFSET 0.000000 0.000000 0.000000
		CHANNELS 3 Zrotation Yrotation Xrotation
		JOINT LeftUpLeg
		{
			OFFSET 1.800000 -1.400000 0.085000
			CHANNELS 3 Zrotation Yrotation Xrotation
			JOINT LeftLeg
			{
				OFFSET 2.215000 -6.000000 0.000000
				CHANNELS 3 Zrotation Yrotation Xrotation
				JOINT LeftFoot
				{
					OFFSET 2.500000 -6.900000 0.000000
					CHANNELS 3 Zrotation Yrotation Xrotation
					JOINT LeftToeBase
					{
						OFFSET 0.200000 -0.500000 1.950000
						CHANNELS 3 Zrotation Yrotation Xrotation
						End Site
						{
							OFFSET 0.000000 0.000000 0.000000
						}
					}
				}
			}
		}
	}
	JOINT RHipJoint
	{
		OFFSET 0.000000 0.000000 0.000000
		CHANNELS 3 Zrotation Yrotation Xrotation
		JOINT RightUpLeg
		{
			OFFSET -1.800000 -1.400000 0.085000
			CHANNELS 3 Zrotation Yrotation Xrotation
			JOINT RightLeg
			{
				OFFSET -2.215000 -6.000000 0.000000
				CHANNELS 3 Zrotation Yrotation Xrotation
				JOINT RightFoot
				{
					OFFSET -2.500000 -6.900000 0.000000
					CHANNELS 3 Zrotation Yrotation Xrotation
					JOINT RightToeBase
					{
						OFFSET -0.200000 -0.500000 1.950000
						CHANNELS 3 Zrotation Yrotation Xrotation
						End Site
						{
							OFFSET 0.000000 0.000000 0.000000
						}
					}
				}
			}
		}
	}
	JOINT LowerBack
	{
		OFFSET 0.000000 0.000000 0.000000
		CHANNELS 3 Zrotation Yrotation Xrotation
		JOINT Spine
		{
			OFFSET -0.087000 1.940000 -0.288900
			CHANNELS 3 Zrotation Yrotation Xrotation
			JOINT Spine1
			{
				OFFSET 0.000000 1.950000 0.060000
				CHANNELS 3 Zrotation Yrotation Xrotation
				JOINT Neck
				{
					OFFSET 0.000000 0.000000 0.000000
					CHANNELS 3 Zrotation Yrotation Xrotation
					JOINT Neck1
					{
						OFFSET 0.000000 1.600000 0.340000
						CHANNELS 3 Zrotation Yrotation Xrotation
						JOINT Head
						{
							OFFSET 0.000000 1.667000 -0.240000
							CHANNELS 3 Zrotation Yrotation Xrotation
							End Site
							{
								OFFSET 0.000000 0.000000 0.000000
							}
						}
					}
				}
				JOINT LeftShoulder
				{
					OFFSET 0.000000 0.000000 0.000000
					CHANNELS 3 Zrotation Yrotation Xrotation
					JOINT LeftArm
					{
						OFFSET 2.700000 1.550000 -0.730000
						CHANNELS 3 Zrotation Yrotation Xrotation
						JOINT LeftForeArm
						{
							OFFSET 5.450000 0.000000 0.000000
							CHANNELS 3 Zrotation Yrotation Xrotation
							JOINT LeftHand
							{
								OFFSET 3.450000 0.000000 0.000000
								CHANNELS 3 Zrotation Yrotation Xrotation
								JOINT LeftHandIndex1
								{
									OFFSET 0.750000 0.000000 0.000000
									CHANNELS 3 Zrotation Yrotation Xrotation
									End Site
									{
										OFFSET 0.000000 0.000000 0.000000
									}
								}
							}
						}
					}
				}
				JOINT RightShoulder
				{
					OFFSET 0.000000 0.000000 0.000000
					CHANNELS 3 Zrotation Yrotation Xrotation
					JOINT RightArm
					{
						OFFSET -2.700000 1.550000 -0.730000
						CHANNELS 3 Zrotation Yrotation Xrotation
						JOINT RightForeArm
						{
							OFFSET -5.450000 0.000000 0.000000
							CHANNELS 3 Zrotation Yrotation Xrotation
							JOINT RightHand
							{
								OFFSET -3.450000 0.000000 0.000000
								CHANNELS 3 Zrotation Yrotation Xrotation
								JOINT RightHandIndex1
								{
									OFFSET -0.750000 0.000000 0.000000
									CHANNELS 3 Zrotation Yrotation Xrotation
									End Site
									{
										OFFSET 0.000000 0.000000 0.000000
									}
								}
							}
						}
					}
				}
			}
		}
	}
}
MOTION
Frames: 7
Frame Time: 0.016667
-0.841530 17.521600 -1.862990 -20.575709 -8.074917 -0.484489 -14.733634 10.662136 1.707365 13.053200 -0.373357 -2.056861 -3.487578 3.665531 -0.909560 -0.432011 4.298977 3.459265 0.274330 0.108760 0.047370 19.167406 -8.886434 6.558849 -45.928241 0.085890 -29.466185 112.824387 -32.144958 8.174008 -2.094187 -10.386594 1.052846 0.317760 0.567030 0.108740 -5.481028 1.274601 -8.834988 45.199040 -7.340036 5.615120 -16.523733 0.297832 13.793485 7.344439 -1.063247 -14.285351 1.127378 -20.162956 20.188559 -8.433930 -18.417380 -3.305420 -11.398438 -14.809454 6.146483 3.178661 0.651152 -0.733605 14.828741 12.612581 0.066391 -4.685942 2.680315 0.005510 0.400340 -0.404000 0.251660 -4.184869 20.459954 10.615932 0.013272 11.726718 -8.318146 -35.453491 1.235881 -4.582676 2.599598 -2.078181 -0.294680 0.367050 0.034450 0.018270 
-0.837890 17.521220 -1.877990 -20.735748 -8.724978 -0.405673 -14.730745 10.620983 1.737340 13.134287 -0.361531 -1.738678 -3.420497 3.609778 -1.459090 -0.422936 4.338959 3.447175 0.293590 0.146940 0.025450 19.166441 -8.909178 6.535830 -45.231279 0.243900 -29.777508 112.482452 -32.295595 8.482083 -2.099973 -10.452738 1.032537 0.349740 0.591900 0.121150 -5.500675 1.372608 -8.837431 45.208925 -7.397075 5.623496 -16.550873 0.243665 14.240651 7.672307 -1.334489 -14.170181 0.805946 -19.668127 20.124312 -8.155490 -18.318990 -3.318660 -11.036919 -14.421578 5.360703 2.658409 -0.920073 -1.383753 17.122143 14.523882 0.457669 -4.759286 2.736771 -0.026000 0.423130 -0.419060 0.270060 -5.037102 20.464413 10.873460 0.013323 11.817733 -8.164252 -34.952763 -0.525023 -4.221769 2.628021 -2.109437 -0.283590 0.368830 0.035470 0.036530 
-0.834830 17.519140 -1.912980 -20.788634 -8.807885 -1.354702 -14.741418 10.636298 1.794226 12.886011 -0.212671 -0.557038 -2.640797 3.499642 -2.369814 -0.380116 4.399202 3.445862 0.297210 0.163890 -0.010030 19.139659 -8.947518 6.480779 -44.210151 0.607761 -29.170277 111.777639 -32.436567 9.087857 -2.096892 -10.514436 1.019165 0.366440 0.621670 0.120340 -5.455409 1.342418 -8.867394 45.198402 -8.145743 6.460218 -17.248903 0.078101 16.008641 8.350409 -1.895063 -15.042790 0.154839 -19.300725 20.280262 -7.625670 -18.630700 -3.066010 -9.511232 -14.010068 4.414729 2.581726 -2.751973 -2.005239 17.696844 16.164667 0.640869 -4.859071 2.735971 -0.057270 0.438630 -0.442170 0.293090 -7.586477 21.453694 12.261762 0.853200 10.811116 -8.248839 -33.709565 -3.347850 -3.639258 2.740687 -2.148683 -0.279670 0.372890 0.035260 0.059900 
-0.828860 17.518680 -1.943040 -20.805547 -8.442243 -2.345779 -14.763601 10.718761 1.835618 13.014439 -0.088306 0.117595 -2.665036 3.589761 -2.405354 -0.293489 4.437216 3.430628 0.295560 0.178760 -0.051690 19.101589 -8.921755 6.438600 -44.037119 0.537486 -27.743140 111.654482 -32.196682 9.064324 -2.085028 -10.451581 1.037308 0.353090 0.620350 0.107960 -5.356972 1.090215 -8.882333 45.249711 -9.317914 7.501583 -17.718634 -0.420324 16.759511 8.412846 -2.704529 -15.451895 -1.124659 -18.656911 20.775674 -5.828680 -19.323430 -3.676480 -7.776035 -13.213563 3.891458 0.518542 -3.366722 -2.429576 19.517148 16.088922 0.877600 -4.828025 2.812254 -0.077260 0.405890 -0.441200 0.306140 -9.301449 21.923065 13.000404 1.274739 10.544991 -8.537157 -33.324250 -5.684445 -3.185961 2.864879 -2.144825 -0.247830 0.363630 0.032170 0.097490 
-0.827700 17.510220 -1.941680 -20.790901 -9.837139 -1.292640 -14.765175 10.678029 1.821198 12.980054 -0.210872 -0.466974 -2.686208 3.505995 -2.401173 -0.404204 4.406962 3.406723 0.345500 0.212060 0.037980 19.114295 -8.907605 6.484122 -44.459677 0.403757 -29.358195 111.747486 -32.755133 9.278660 -2.125163 -10.508241 0.988586 0.394630 0.567380 0.121110 -5.395531 1.204907 -8.881195 44.864632 -8.491922 7.304925 -16.893125 -0.147784 15.919123 8.279025 -2.093364 -14.933795 -0.127656 -19.030702 20.237045 -7.107970 -18.473950 -4.652600 -8.326195 -13.022998 4.460051 2.304639 -2.171506 -1.363368 16.292081 14.255875 0.290441 -4.805669 2.712143 -0.019690 0.395280 -0.407340 0.272350 -8.623456 20.776105 11.978200 0.072107 11.263843 -7.994104 -32.758161 -6.104201 -2.908276 2.803526 -2.097428 -0.266540 0.365370 0.030100 0.038810 
-0.827160 17.497190 -1.933080 -20.570523 -10.986846 0.193455 -14.745060 10.557475 1.744417 13.067942 -0.408135 -1.812816 -3.673103 3.571833 -1.661923 -0.487943 4.381325 3.419430 0.359650 0.202920 0.064260 19.171663 -8.892281 6.584930 -45.915695 -0.210064 -30.964235 112.721545 -32.855994 8.662701 -2.126242 -10.520726 0.992379 0.410740 0.599360 0.141390 -5.526210 1.483884 -8.845431 44.730486 -7.693774 6.149693 -16.671512 0.169149 14.421736 7.716778 -1.533081 -13.677800 0.686911 -18.950485 19.578518 -7.636080 -17.912080 -4.267830 -8.910362 -12.411058 4.841035 3.580709 -1.016230 -0.528265 14.610552 12.170700 -0.086711 -4.775077 2.685438 -0.011390 0.430580 -0.422570 0.278800 -7.116234 18.858557 10.438871 -0.532613 13.014255 -7.542198 -34.120719 -3.981438 -3.379760 2.650648 -2.115016 -0.290370 0.382400 0.034680 0.020320 
-0.825920 17.486910 -1.932000 -20.542641 -11.627971 1.074506 -14.744497 10.523409 1.737096 13.122932 -0.527416 -2.572372 -4.122384 3.592259 -1.499555 -0.558289 4.396950 3.409386 0.341110 0.168690 0.080120 19.186599 -8.889948 6.583999 -46.660708 -0.680358 -31.781147 113.220620 -33.550479 8.521700 -2.128479 -10.567578 0.973269 0.413660 0.616400 0.143700 -5.555189 1.539208 -8.817296 44.423305 -7.292413 5.564569 -16.149997 0.082403 13.521319 7.554436 -1.189125 -13.000513 1.194534 -18.933664 19.153507 -8.364660 -17.344230 -4.148600 -9.327984 -11.833646 5.022095 3.621726 0.380831 -0.031294 15.554681 9.442341 -0.194371 -4.728182 2.693592 0.006160 0.453150 -0.434610 0.256590 -6.513352 17.533958 9.544626 -1.817258 13.885613 -7.032146 -33.835015 -3.036044 -3.434230 2.568580 -2.070198 -0.326090 0.405530 0.062610 -0.007520 
